<svg width="110" height="36" viewBox="0 0 110 36" fill="none" xmlns="http://www.w3.org/2000/svg">
<path d="M36.7324 4.67965C36.7324 2.91934 34.6225 2.01758 33.3502 3.23415L18.9034 17.0484C18.5088 17.4258 18.2857 17.948 18.2857 18.4939L18.2857 30.3823C18.2857 32.1426 20.3956 33.0444 21.6679 31.8278L36.1146 18.0135C36.5092 17.6362 36.7324 17.1139 36.7324 16.568L36.7324 4.67965Z" fill="#E8E8F6"/>
<path d="M57.908 23H48.476V9.698H51.158V20.444H57.908V23ZM62.1941 10.526C62.1941 10.97 62.0441 11.342 61.7441 11.642C61.4441 11.942 61.0721 12.092 60.6281 12.092C60.1841 12.092 59.8121 11.942 59.5121 11.642C59.2121 11.342 59.0621 10.97 59.0621 10.526C59.0621 10.082 59.2121 9.716 59.5121 9.428C59.8121 9.128 60.1841 8.978 60.6281 8.978C61.0721 8.978 61.4441 9.128 61.7441 9.428C62.0441 9.716 62.1941 10.082 62.1941 10.526ZM61.8881 13.19V23H59.3501V13.19H61.8881ZM66.6861 23H64.1481V13.19H66.6321V14.558C66.8961 14.066 67.3041 13.67 67.8561 13.37C68.4081 13.07 69.0261 12.92 69.7101 12.92C70.7781 12.92 71.6841 13.274 72.4281 13.982C73.1721 14.69 73.5441 15.698 73.5441 17.006V23H71.0061V17.69C71.0061 16.922 70.8201 16.328 70.4481 15.908C70.0761 15.476 69.5721 15.26 68.9361 15.26C68.2641 15.26 67.7181 15.494 67.2981 15.962C66.8901 16.418 66.6861 17.012 66.6861 17.744V23ZM83.2205 14.27V13.19H85.5605V22.028C85.5605 23.612 85.0565 24.86 84.0485 25.772C83.0285 26.696 81.7205 27.158 80.1245 27.158C78.4325 27.158 76.9325 26.684 75.6245 25.736L76.6145 23.828C77.7425 24.596 78.8885 24.98 80.0525 24.98C81.0005 24.98 81.7445 24.728 82.2845 24.224C82.8365 23.72 83.1125 23.066 83.1125 22.262V21.758C82.3565 22.598 81.3485 23.018 80.0885 23.018C78.6485 23.018 77.4725 22.544 76.5605 21.596C75.6485 20.648 75.1925 19.448 75.1925 17.996C75.1925 16.544 75.6725 15.338 76.6325 14.378C77.5925 13.418 78.7805 12.938 80.1965 12.938C81.3965 12.938 82.4045 13.382 83.2205 14.27ZM77.7485 18.014C77.7485 18.83 78.0065 19.496 78.5225 20.012C79.0505 20.54 79.6985 20.804 80.4665 20.804C81.2345 20.804 81.8825 20.54 82.4105 20.012C82.9265 19.484 83.1845 18.818 83.1845 18.014C83.1845 17.222 82.9265 16.568 82.4105 16.052C81.8825 15.524 81.2345 15.26 80.4665 15.26C79.6985 15.26 79.0505 15.524 78.5225 16.052C78.0065 16.568 77.7485 17.222 77.7485 18.014ZM95.529 22.082C94.737 22.85 93.639 23.234 92.235 23.234C90.831 23.234 89.727 22.85 88.923 22.082C88.131 21.302 87.735 20.228 87.735 18.86V13.19H90.273V18.86C90.273 19.484 90.447 19.982 90.795 20.354C91.143 20.726 91.623 20.912 92.235 20.912C92.847 20.912 93.327 20.726 93.675 20.354C94.023 19.982 94.197 19.484 94.197 18.86V13.19H96.735V18.86C96.735 20.24 96.333 21.314 95.529 22.082ZM106.388 14.36V13.19H108.8V23H106.388V21.866C105.548 22.778 104.504 23.234 103.256 23.234C101.84 23.234 100.676 22.742 99.7636 21.758C98.8516 20.774 98.3956 19.538 98.3956 18.05C98.3956 16.574 98.8576 15.356 99.7816 14.396C100.706 13.424 101.864 12.938 103.256 12.938C104.48 12.938 105.524 13.412 106.388 14.36ZM106.424 18.086C106.424 17.318 106.16 16.652 105.632 16.088C105.116 15.536 104.462 15.26 103.67 15.26C102.866 15.26 102.206 15.536 101.69 16.088C101.186 16.64 100.934 17.306 100.934 18.086C100.934 18.878 101.192 19.55 101.708 20.102C102.224 20.654 102.878 20.93 103.67 20.93C104.462 20.93 105.116 20.654 105.632 20.102C106.16 19.538 106.424 18.866 106.424 18.086Z" fill="#181B32"/>
<path d="M18.4468 4.67965C18.4468 2.91934 16.3368 2.01758 15.0646 3.23415L0.617795 17.0484C0.223203 17.4258 1.21207e-05 17.948 1.20252e-05 18.4939L9.94658e-06 30.3823C9.6388e-06 32.1426 2.10996 33.0444 3.38223 31.8278L17.829 18.0135C18.2236 17.6362 18.4468 17.1139 18.4468 16.568L18.4468 4.67965Z" fill="#524FD5"/>
</svg>
