<svg width="110" height="36" viewBox="0 0 110 36" fill="none" xmlns="http://www.w3.org/2000/svg">
<path d="M36.7324 5.1484C36.7324 3.38809 34.6225 2.48633 33.3502 3.7029L18.9034 17.5172C18.5088 17.8945 18.2857 18.4167 18.2857 18.9627L18.2857 30.851C18.2857 32.6113 20.3956 33.5131 21.6679 32.2965L36.1146 18.4822C36.5092 18.1049 36.7324 17.5827 36.7324 17.0367L36.7324 5.1484Z" fill="#FFC0B4"/>
<path d="M57.908 23.4688H48.476V10.1667H51.158V20.9127H57.908V23.4688ZM62.1941 10.9947C62.1941 11.4387 62.0441 11.8107 61.7441 12.1107C61.4441 12.4107 61.0721 12.5607 60.6281 12.5607C60.1841 12.5607 59.8121 12.4107 59.5121 12.1107C59.2121 11.8107 59.0621 11.4387 59.0621 10.9947C59.0621 10.5507 59.2121 10.1847 59.5121 9.89675C59.8121 9.59675 60.1841 9.44675 60.6281 9.44675C61.0721 9.44675 61.4441 9.59675 61.7441 9.89675C62.0441 10.1847 62.1941 10.5507 62.1941 10.9947ZM61.8881 13.6587V23.4688H59.3501V13.6587H61.8881ZM66.6861 23.4688H64.1481V13.6587H66.6321V15.0267C66.8961 14.5347 67.3041 14.1387 67.8561 13.8387C68.4081 13.5387 69.0261 13.3887 69.7101 13.3887C70.7781 13.3887 71.6841 13.7427 72.4281 14.4507C73.1721 15.1587 73.5441 16.1667 73.5441 17.4747V23.4688H71.0061V18.1587C71.0061 17.3907 70.8201 16.7967 70.4481 16.3767C70.0761 15.9447 69.5721 15.7287 68.9361 15.7287C68.2641 15.7287 67.7181 15.9627 67.2981 16.4307C66.8901 16.8867 66.6861 17.4807 66.6861 18.2127V23.4688ZM83.2205 14.7387V13.6587H85.5605V22.4967C85.5605 24.0808 85.0565 25.3288 84.0485 26.2408C83.0285 27.1648 81.7205 27.6268 80.1245 27.6268C78.4325 27.6268 76.9325 27.1528 75.6245 26.2048L76.6145 24.2968C77.7425 25.0648 78.8885 25.4488 80.0525 25.4488C81.0005 25.4488 81.7445 25.1968 82.2845 24.6928C82.8365 24.1888 83.1125 23.5347 83.1125 22.7307V22.2267C82.3565 23.0667 81.3485 23.4868 80.0885 23.4868C78.6485 23.4868 77.4725 23.0127 76.5605 22.0647C75.6485 21.1167 75.1925 19.9167 75.1925 18.4647C75.1925 17.0127 75.6725 15.8067 76.6325 14.8467C77.5925 13.8867 78.7805 13.4067 80.1965 13.4067C81.3965 13.4067 82.4045 13.8507 83.2205 14.7387ZM77.7485 18.4827C77.7485 19.2987 78.0065 19.9647 78.5225 20.4807C79.0505 21.0087 79.6985 21.2727 80.4665 21.2727C81.2345 21.2727 81.8825 21.0087 82.4105 20.4807C82.9265 19.9527 83.1845 19.2867 83.1845 18.4827C83.1845 17.6907 82.9265 17.0367 82.4105 16.5207C81.8825 15.9927 81.2345 15.7287 80.4665 15.7287C79.6985 15.7287 79.0505 15.9927 78.5225 16.5207C78.0065 17.0367 77.7485 17.6907 77.7485 18.4827ZM95.529 22.5507C94.737 23.3187 93.639 23.7028 92.235 23.7028C90.831 23.7028 89.727 23.3187 88.923 22.5507C88.131 21.7707 87.735 20.6967 87.735 19.3287V13.6587H90.273V19.3287C90.273 19.9527 90.447 20.4507 90.795 20.8228C91.143 21.1947 91.623 21.3807 92.235 21.3807C92.847 21.3807 93.327 21.1947 93.675 20.8228C94.023 20.4507 94.197 19.9527 94.197 19.3287V13.6587H96.735V19.3287C96.735 20.7087 96.333 21.7827 95.529 22.5507ZM106.388 14.8287V13.6587H108.8V23.4688H106.388V22.3347C105.548 23.2467 104.504 23.7028 103.256 23.7028C101.84 23.7028 100.676 23.2107 99.7636 22.2267C98.8516 21.2427 98.3956 20.0067 98.3956 18.5187C98.3956 17.0427 98.8576 15.8247 99.7816 14.8647C100.706 13.8927 101.864 13.4067 103.256 13.4067C104.48 13.4067 105.524 13.8807 106.388 14.8287ZM106.424 18.5547C106.424 17.7867 106.16 17.1207 105.632 16.5567C105.116 16.0047 104.462 15.7287 103.67 15.7287C102.866 15.7287 102.206 16.0047 101.69 16.5567C101.186 17.1087 100.934 17.7747 100.934 18.5547C100.934 19.3467 101.192 20.0187 101.708 20.5707C102.224 21.1227 102.878 21.3987 103.67 21.3987C104.462 21.3987 105.116 21.1227 105.632 20.5707C106.16 20.0067 106.424 19.3347 106.424 18.5547Z" fill="#181B32"/>
<path d="M18.4468 5.1484C18.4468 3.38809 16.3368 2.48633 15.0646 3.7029L0.617795 17.5172C0.223203 17.8945 1.21207e-05 18.4167 1.20252e-05 18.9627L9.94658e-06 30.851C9.6388e-06 32.6113 2.10996 33.5131 3.38223 32.2965L17.829 18.4822C18.2236 18.1049 18.4468 17.5827 18.4468 17.0367L18.4468 5.1484Z" fill="#524FD5"/>
</svg>
